<?xml version="1.0" encoding="UTF-8"?>
<svg width="198px" height="194px" viewBox="0 0 198 194" version="1.1" xmlns="http://www.w3.org/2000/svg" xmlns:xlink="http://www.w3.org/1999/xlink">
    <!-- Generator: Sketch 47 (45396) - http://www.bohemiancoding.com/sketch -->
    <title>Face</title>
    <desc>Created with Sketch.</desc>
    <defs></defs>
    <g id="Page-1" stroke="none" stroke-width="1" fill="none" fill-rule="evenodd">
        <g id="Face" transform="translate(1.000000, 1.000000)">
            <path d="M105,156 C155.810197,156 196,133.57821 196,90.5 C196,63.8452239 180.613117,35.5274852 156.844136,17.8096352 C142.198795,6.89271929 124.37123,0 105,0 C54.189803,0 15.5,34.9217895 15.5,78 C15.5,121.07821 54.189803,156 105,156 Z" id="Head" stroke="#FFFFFF"></path>
            <path d="M16,70.1994192 C14.4998644,69.4325573 12.8004468,69 11,69 C4.92486775,69 0,73.9248678 0,80 C0,86.0751322 4.92486775,91 11,91 C12.8004468,91 14.4998644,90.5674427 16,89.8005808 L16,70.1994192 L16,70.1994192 Z" id="Combined-Shape" stroke="#FFFFFF" opacity="0.715240036"></path>
            <path d="M162.799744,131.35003 C177.711137,120.88189 189.373703,106.099847 195.974608,88.8167347 C195.991503,89.5424515 196,90.2702335 196,91 C196,92.6775319 195.955102,94.3445773 195.866441,96 C195.955102,97.6554253 196,99.3224694 196,101 C196,151.810197 154.810197,193 104,193 C53.189803,193 12,151.810197 12,101 C12,99.3224694 12.0448982,97.6554253 12.1335585,96.0000038 C12.0448983,94.3445773 12,92.6775319 12,91 C12,79.4390733 14.1324225,68.3762006 18.0253969,58.1832524 C19.0763276,103.311109 52.6224479,140.403141 96.1721061,146.967696 C96.0582834,145.827239 96,144.670426 96,143.5 C96,124.446176 111.446176,109 130.5,109 C145.277505,109 157.884998,118.290924 162.79974,131.350033 L162.799744,131.35003 Z M118.347864,137 C118.120377,137.963039 118,138.967462 118,140 C118,147.179702 123.820298,151 131,151 C138.179702,151 144,147.179702 144,140 C144,138.967462 143.879623,137.963039 143.652136,137 L118.347864,137 Z" id="Combined-Shape" fill="#FFFFFF"></path>
            <path d="M86.5,89.5 C87.8333333,85.1666667 90.3333333,83 94,83 C97.6666667,83 100.166667,85.1666667 101.5,89.5" id="Eye-1" stroke="#FFFFFF" stroke-linecap="square"></path>
            <path d="M151,89.5 C152.333333,85.1666667 154.833333,83 158.5,83 C162.166667,83 164.666667,85.1666667 166,89.5" id="Eye-2" stroke="#FFFFFF" stroke-linecap="square"></path>
        </g>
    </g>
</svg>