<?xml version="1.0" encoding="UTF-8"?>
<svg width="199px" height="196px" viewBox="0 0 199 196" version="1.1" xmlns="http://www.w3.org/2000/svg" xmlns:xlink="http://www.w3.org/1999/xlink">
    <!-- Generator: Sketch 47 (45396) - http://www.bohemiancoding.com/sketch -->
    <title>DamianFace</title>
    <desc>Created with Sketch.</desc>
    <defs></defs>
    <g id="Page-1" stroke="none" stroke-width="1" fill="none" fill-rule="evenodd">
        <g id="DamianFace" transform="translate(-2.000000, -5.000000)">
            <rect id="Rectangle" x="0" y="0" width="204" height="204"></rect>
            <path d="M165.799744,138.35003 C180.711137,127.88189 192.373703,113.099847 198.974608,95.8167347 C198.991503,96.5424515 199,97.2702335 199,98 C199,99.6775319 198.955102,101.344577 198.866441,103 C198.955102,104.655425 199,106.322469 199,108 C199,158.810197 157.810197,200 107,200 C56.189803,200 15,158.810197 15,108 C15,106.322469 15.0448982,104.655425 15.1335585,103.000004 C15.0448983,101.344577 15,99.6775319 15,98 C15,86.4390733 17.1324225,75.3762006 21.0253969,65.1832524 C22.0763276,110.311109 55.6224479,147.403141 99.1721061,153.967696 C99.0582834,152.827239 99,151.670426 99,150.5 C99,131.446176 114.446176,116 133.5,116 C148.277505,116 160.884998,125.290924 165.79974,138.350033 L165.799744,138.35003 Z M121.347864,144 C121.120377,144.963039 121,145.967462 121,147 C121,154.179702 126.820298,158 134,158 C141.179702,158 147,154.179702 147,147 C147,145.967462 146.879623,144.963039 146.652136,144 L121.347864,144 Z" id="Combined-Shape" fill="#C6C7C4" fill-rule="nonzero"></path>
            <path d="M14.8229512,96.9696801 C10.7434762,134.784232 39.3981701,202.46123 108,199.5 C177.5,196.5 201.5,140.5 199,96.5 C197.488184,69.8920323 183.613117,41.5274852 159.844136,23.8096352 C145.198795,12.8927193 127.37123,6 108,6 C66.0524789,6 35.5251021,35.2623584 21,66.5 C19.9574916,68.7420155 19.0226554,72.1190295 18.2114652,75.8350172 C16.9142656,75.2969696 15.4918133,75 14,75 C7.92486775,75 3,79.9248678 3,86 C3,92.0751322 7.92486775,97 14,97 C14.2768245,97 14.5512606,96.9897743 14.8229512,96.9696801 Z" id="Combined-Shape" stroke="#C6C7C4" stroke-width="2"></path>
            <path d="M89.5,95.5 C90.8333333,91.1666667 93.3333333,89 97,89 C100.666667,89 103.166667,91.1666667 104.5,95.5" id="Eye-1" stroke="#C6C7C4" stroke-width="2" stroke-linecap="square"></path>
            <path d="M154,95.5 C155.333333,91.1666667 157.833333,89 161.5,89 C165.166667,89 167.666667,91.1666667 169,95.5" id="Eye-2" stroke="#C6C7C4" stroke-width="2" stroke-linecap="square"></path>
        </g>
    </g>
</svg>